<svg width="41" height="40" viewBox="0 0 41 40" fill="none" xmlns="http://www.w3.org/2000/svg">
<rect x="0.5" width="40" height="40" rx="12" fill="#DBEAFE"/>
<path d="M19.5 24C19.5 24.5523 19.9477 25 20.5 25C21.0523 25 21.5 24.5523 21.5 24H20.5H19.5ZM15.7897 18.4961C15.401 18.8883 15.4038 19.5215 15.7961 19.9103C16.1883 20.299 16.8215 20.2962 17.2103 19.9039L16.5 19.2L15.7897 18.4961ZM17.8978 17.7896L18.6081 18.4936L17.8978 17.7896ZM23.1022 17.7896L23.8124 17.0857V17.0857L23.1022 17.7896ZM23.7897 19.9039C24.1785 20.2962 24.8117 20.299 25.2039 19.9103C25.5962 19.5215 25.599 18.8883 25.2103 18.4961L24.5 19.2L23.7897 19.9039ZM20.2493 16.0159L20.1229 15.0239L20.1229 15.0239L20.2493 16.0159ZM20.7507 16.0159L20.8771 15.0239L20.8771 15.0239L20.7507 16.0159ZM21.5 16.0159C21.5 15.4636 21.0523 15.0159 20.5 15.0159C19.9477 15.0159 19.5 15.4636 19.5 16.0159H20.5H21.5ZM30.5 20H29.5C29.5 24.9706 25.4706 29 20.5 29V30V31C26.5751 31 31.5 26.0751 31.5 20H30.5ZM20.5 30V29C15.5294 29 11.5 24.9706 11.5 20H10.5H9.5C9.5 26.0751 14.4249 31 20.5 31V30ZM10.5 20H11.5C11.5 15.0294 15.5294 11 20.5 11V10V9C14.4249 9 9.5 13.9249 9.5 20H10.5ZM20.5 10V11C25.4706 11 29.5 15.0294 29.5 20H30.5H31.5C31.5 13.9249 26.5751 9 20.5 9V10ZM20.5 24H21.5V16.8H20.5H19.5V24H20.5ZM16.5 19.2L17.2103 19.9039L18.6081 18.4936L17.8978 17.7896L17.1876 17.0857L15.7897 18.4961L16.5 19.2ZM23.1022 17.7896L22.3919 18.4936L23.7897 19.9039L24.5 19.2L25.2103 18.4961L23.8124 17.0857L23.1022 17.7896ZM17.8978 17.7896L18.6081 18.4936C19.182 17.9145 19.5541 17.5413 19.863 17.2932C20.1562 17.0577 20.2941 17.0183 20.3758 17.0079L20.2493 16.0159L20.1229 15.0239C19.5252 15.1001 19.0447 15.3852 18.6107 15.7338C18.1925 16.0697 17.7284 16.54 17.1876 17.0857L17.8978 17.7896ZM23.1022 17.7896L23.8124 17.0857C23.2716 16.54 22.8076 16.0697 22.3893 15.7338C21.9553 15.3852 21.4748 15.1001 20.8771 15.0239L20.7507 16.0159L20.6242 17.0079C20.7059 17.0183 20.8438 17.0577 21.137 17.2932C21.4459 17.5413 21.818 17.9145 22.3919 18.4936L23.1022 17.7896ZM20.2493 16.0159L20.3758 17.0079C20.4583 16.9974 20.5417 16.9974 20.6242 17.0079L20.7507 16.0159L20.8771 15.0239C20.6267 14.992 20.3733 14.992 20.1229 15.0239L20.2493 16.0159ZM20.5 16.8H21.5V16.0159H20.5H19.5V16.8H20.5Z" fill="#505BEB"/>
</svg>
