<svg width="25" height="25" viewBox="0 0 25 25" fill="none" xmlns="http://www.w3.org/2000/svg">
<path d="M5.56107 21.6286L5.85497 21.2241L5.56107 21.6286ZM4.45491 20.5224L4.85942 20.2285L4.45491 20.5224ZM20.5451 20.5224L20.1406 20.2285L20.5451 20.5224ZM19.4389 21.6286L19.7328 22.0331L19.4389 21.6286ZM19.4389 5.53841L19.7328 5.1339L19.4389 5.53841ZM20.5451 6.64457L20.1406 6.93846V6.93846L20.5451 6.64457ZM5.56107 5.53841L5.85497 5.94292L5.56107 5.53841ZM4.45491 6.64457L4.85942 6.93846V6.93846L4.45491 6.64457ZM19.7178 16.6451L19.6396 16.1512L19.7178 16.6451ZM15.5616 20.8013L15.0677 20.7231L15.5616 20.8013ZM9.5 14.0835C9.22386 14.0835 9 14.3074 9 14.5835C9 14.8596 9.22386 15.0835 9.5 15.0835V14.5835V14.0835ZM15.5 15.0835C15.7761 15.0835 16 14.8596 16 14.5835C16 14.3074 15.7761 14.0835 15.5 14.0835V14.5835V15.0835ZM15 5.5835C15 5.85964 15.2239 6.0835 15.5 6.0835C15.7761 6.0835 16 5.85964 16 5.5835H15.5H15ZM16 2.5835C16 2.30735 15.7761 2.0835 15.5 2.0835C15.2239 2.0835 15 2.30735 15 2.5835H15.5H16ZM9 5.5835C9 5.85964 9.22386 6.0835 9.5 6.0835C9.77614 6.0835 10 5.85964 10 5.5835H9.5H9ZM10 2.5835C10 2.30735 9.77614 2.0835 9.5 2.0835C9.22386 2.0835 9 2.30735 9 2.5835H9.5H10ZM21.4711 16.5835L21.9708 16.6006L21.4711 16.5835ZM3.52893 10.5835L3.02922 10.5664L3.52893 10.5835ZM21.4711 10.5835L21.9708 10.5664L21.4711 10.5835ZM12.5 22.5835V22.0835C10.614 22.0835 9.23966 22.0828 8.17112 21.967C7.11193 21.8523 6.41269 21.6293 5.85497 21.2241L5.56107 21.6286L5.26718 22.0331C6.02378 22.5828 6.91914 22.8372 8.0634 22.9612C9.19831 23.0842 10.6363 23.0835 12.5 23.0835V22.5835ZM3.5 13.5835H3C3 15.4472 2.99931 16.8852 3.12227 18.0201C3.24625 19.1644 3.5007 20.0597 4.05041 20.8163L4.45491 20.5224L4.85942 20.2285C4.45421 19.6708 4.23121 18.9716 4.11646 17.9124C4.00069 16.8438 4 15.4695 4 13.5835H3.5ZM5.56107 21.6286L5.85497 21.2241C5.47294 20.9465 5.13698 20.6106 4.85942 20.2285L4.45491 20.5224L4.05041 20.8163C4.38964 21.2832 4.80026 21.6939 5.26718 22.0331L5.56107 21.6286ZM20.5451 20.5224L20.1406 20.2285C19.863 20.6106 19.5271 20.9465 19.145 21.2241L19.4389 21.6286L19.7328 22.0331C20.1997 21.6939 20.6104 21.2832 20.9496 20.8163L20.5451 20.5224ZM19.4389 5.53841L19.145 5.94292C19.5271 6.22048 19.863 6.55644 20.1406 6.93846L20.5451 6.64457L20.9496 6.35068C20.6104 5.88376 20.1997 5.47314 19.7328 5.1339L19.4389 5.53841ZM5.56107 5.53841L5.26718 5.1339C4.80026 5.47314 4.38964 5.88376 4.05041 6.35068L4.45491 6.64457L4.85942 6.93846C5.13698 6.55644 5.47294 6.22048 5.85497 5.94292L5.56107 5.53841ZM19.7178 16.6451L19.6396 16.1512C17.2862 16.524 15.4405 18.3697 15.0677 20.7231L15.5616 20.8013L16.0554 20.8795C16.3604 18.954 17.8705 17.4439 19.796 17.1389L19.7178 16.6451ZM9.5 14.5835V15.0835H15.5V14.5835V14.0835H9.5V14.5835ZM21.4711 16.5835L21.4711 16.0835C20.5796 16.0835 20.0727 16.0826 19.6396 16.1512L19.7178 16.6451L19.796 17.1389C20.1322 17.0857 20.543 17.0835 21.4711 17.0835L21.4711 16.5835ZM21.5 13.5835H21C21 14.7552 20.9999 15.7324 20.9714 16.5664L21.4711 16.5835L21.9708 16.6006C22.0001 15.7459 22 14.7497 22 13.5835H21.5ZM21.4711 16.5835L20.9714 16.5664C20.9077 18.4244 20.7014 19.4566 20.1406 20.2285L20.5451 20.5224L20.9496 20.8163C21.7032 19.779 21.9067 18.471 21.9708 16.6006L21.4711 16.5835ZM15.5 22.5546L16 22.5546C16 21.6265 16.0022 21.2157 16.0554 20.8795L15.5616 20.8013L15.0677 20.7231C14.9991 21.1562 15 21.6631 15 22.5546L15.5 22.5546ZM12.5 22.5835V23.0835C13.6662 23.0835 14.6624 23.0836 15.5171 23.0543L15.5 22.5546L15.4829 22.0549C14.6489 22.0834 13.6717 22.0835 12.5 22.0835V22.5835ZM15.5 22.5546L15.5171 23.0543C17.3875 22.9902 18.6955 22.7867 19.7328 22.0331L19.4389 21.6286L19.145 21.2241C18.3731 21.7849 17.3409 21.9912 15.4829 22.0549L15.5 22.5546ZM3.5 13.5835H4C4 12.4118 4.00006 11.4346 4.02864 10.6006L3.52893 10.5835L3.02922 10.5664C2.99994 11.4211 3 12.4173 3 13.5835H3.5ZM3.52893 10.5835L4.02864 10.6006C4.09229 8.7426 4.2986 7.71036 4.85942 6.93846L4.45491 6.64457L4.05041 6.35068C3.29676 7.38799 3.0933 8.69602 3.02922 10.5664L3.52893 10.5835ZM3.52893 10.5835V11.0835H21.4711V10.5835V10.0835H3.52893V10.5835ZM21.5 13.5835H22C22 12.4173 22.0001 11.4211 21.9708 10.5664L21.4711 10.5835L20.9714 10.6006C20.9999 11.4346 21 12.4118 21 13.5835H21.5ZM21.4711 10.5835L21.9708 10.5664C21.9067 8.69602 21.7032 7.38799 20.9496 6.35068L20.5451 6.64457L20.1406 6.93846C20.7014 7.71036 20.9077 8.7426 20.9714 10.6006L21.4711 10.5835ZM15.5 5.5835H16V4.61242H15.5H15V5.5835H15.5ZM15.5 4.61242H16V2.5835H15.5H15V4.61242H15.5ZM12.5 4.5835V5.0835C13.6717 5.0835 14.6489 5.08356 15.4829 5.11213L15.5 4.61242L15.5171 4.11272C14.6624 4.08343 13.6662 4.0835 12.5 4.0835V4.5835ZM15.5 4.61242L15.4829 5.11213C17.3409 5.17579 18.3731 5.3821 19.145 5.94292L19.4389 5.53841L19.7328 5.1339C18.6955 4.38025 17.3875 4.1768 15.5171 4.11272L15.5 4.61242ZM9.5 5.5835H10V4.61242H9.5H9V5.5835H9.5ZM9.5 4.61242H10V2.5835H9.5H9V4.61242H9.5ZM12.5 4.5835V4.0835C11.3338 4.0835 10.3376 4.08343 9.48288 4.11272L9.5 4.61242L9.51712 5.11213C10.3511 5.08356 11.3283 5.0835 12.5 5.0835V4.5835ZM9.5 4.61242L9.48288 4.11272C7.61252 4.1768 6.30449 4.38025 5.26718 5.1339L5.56107 5.53841L5.85497 5.94292C6.62687 5.3821 7.65911 5.17579 9.51712 5.11213L9.5 4.61242Z" fill="#666666"/>
</svg>
