<svg width="32" height="62" viewBox="0 0 32 62" fill="none" xmlns="http://www.w3.org/2000/svg">
<path d="M6.66222 42.9412L7.10306 42.3344L6.66222 42.9412ZM5.23343 41.5124L5.84019 41.0716L5.23343 41.5124ZM26.0166 41.5124L25.4098 41.0716L26.0166 41.5124ZM24.5878 42.9412L25.0286 43.548L24.5878 42.9412ZM24.5878 22.1581L25.0286 21.5513L24.5878 22.1581ZM26.0166 23.5869L25.4098 24.0277L26.0166 23.5869ZM6.66222 22.1581L7.10306 22.7648H7.10306L6.66222 22.1581ZM5.23343 23.5869L5.84019 24.0277L5.23343 23.5869ZM24.948 36.5042L24.8307 35.7634L24.948 36.5042ZM19.5795 41.8727L18.8387 41.7553L19.5795 41.8727ZM18.75 22.2163C18.75 22.6305 19.0858 22.9663 19.5 22.9663C19.9142 22.9663 20.25 22.6305 20.25 22.2163H19.5H18.75ZM20.25 18.3413C20.25 17.9271 19.9142 17.5913 19.5 17.5913C19.0858 17.5913 18.75 17.9271 18.75 18.3413H19.5H20.25ZM11 22.2163C11 22.6305 11.3358 22.9663 11.75 22.9663C12.1642 22.9663 12.5 22.6305 12.5 22.2163H11.75H11ZM12.5 18.3413C12.5 17.9271 12.1642 17.5913 11.75 17.5913C11.3358 17.5913 11 17.9271 11 18.3413H11.75H12.5ZM27.2126 36.4246L27.9622 36.4503L27.2126 36.4246ZM19.5 44.1373L19.5257 44.8868L19.5 44.1373ZM15.625 44.1746V43.4246C13.1866 43.4246 11.418 43.4236 10.0447 43.2748C8.6855 43.1276 7.80274 42.8428 7.10306 42.3344L6.66222 42.9412L6.22138 43.548C7.21938 44.2731 8.3963 44.605 9.88318 44.7661C11.356 44.9257 13.22 44.9246 15.625 44.9246V44.1746ZM4 32.5496H3.25C3.25 34.9546 3.24897 36.8186 3.40854 38.2915C3.56964 39.7783 3.90158 40.9553 4.62667 41.9533L5.23343 41.5124L5.84019 41.0716C5.33185 40.3719 5.04708 39.4891 4.89982 38.1299C4.75103 36.7566 4.75 34.9881 4.75 32.5496H4ZM6.66222 42.9412L7.10306 42.3344C6.61845 41.9824 6.19228 41.5562 5.84019 41.0716L5.23343 41.5124L4.62667 41.9533C5.07128 42.5652 5.60943 43.1034 6.22138 43.548L6.66222 42.9412ZM26.0166 41.5124L25.4098 41.0716C25.0577 41.5562 24.6315 41.9824 24.1469 42.3344L24.5878 42.9412L25.0286 43.548C25.6406 43.1034 26.1787 42.5652 26.6233 41.9533L26.0166 41.5124ZM27.25 32.5496H28C28 30.1446 28.001 28.2807 27.8415 26.8078C27.6804 25.3209 27.3484 24.144 26.6233 23.146L26.0166 23.5869L25.4098 24.0277C25.9181 24.7274 26.2029 25.6101 26.3502 26.9694C26.499 28.3427 26.5 30.1112 26.5 32.5496H27.25ZM24.5878 22.1581L24.1469 22.7648C24.6315 23.1169 25.0577 23.5431 25.4098 24.0277L26.0166 23.5869L26.6233 23.146C26.1787 22.5341 25.6406 21.9959 25.0286 21.5513L24.5878 22.1581ZM4 32.5496H4.75C4.75 30.1112 4.75103 28.3427 4.89982 26.9694C5.04708 25.6101 5.33185 24.7274 5.84019 24.0277L5.23343 23.5869L4.62667 23.146C3.90158 24.144 3.56964 25.3209 3.40854 26.8078C3.24897 28.2807 3.25 30.1446 3.25 32.5496H4ZM6.66222 22.1581L6.22138 21.5513C5.60943 21.9959 5.07128 22.5341 4.62667 23.146L5.23343 23.5869L5.84019 24.0277C6.19228 23.5431 6.61845 23.1169 7.10306 22.7648L6.66222 22.1581ZM24.948 36.5042L24.8307 35.7634C21.7463 36.2519 19.3273 38.671 18.8387 41.7553L19.5795 41.8727L20.3203 41.99C20.7071 39.5474 22.6228 37.6318 25.0654 37.2449L24.948 36.5042ZM11.75 22.2163H12.5V20.962H11.75H11V22.2163H11.75ZM11.75 20.962H12.5V18.3413H11.75H11V20.962H11.75ZM15.625 20.9246V20.1746C14.1193 20.1746 12.8305 20.1745 11.7243 20.2124L11.75 20.962L11.7757 21.7116C12.8507 21.6747 14.111 21.6746 15.625 21.6746V20.9246ZM11.75 20.962L11.7243 20.2124C9.30715 20.2953 7.58888 20.5578 6.22138 21.5513L6.66222 22.1581L7.10306 22.7648C8.07245 22.0605 9.37703 21.7937 11.7757 21.7116L11.75 20.962ZM19.5 22.2163H20.25V20.962H19.5H18.75V22.2163H19.5ZM19.5 20.962H20.25V18.3413H19.5H18.75V20.962H19.5ZM15.625 20.9246V21.6746C17.139 21.6746 18.3993 21.6747 19.4743 21.7116L19.5 20.962L19.5257 20.2124C18.4195 20.1745 17.1307 20.1746 15.625 20.1746V20.9246ZM19.5 20.962L19.4743 21.7116C21.873 21.7937 23.1775 22.0605 24.1469 22.7648L24.5878 22.1581L25.0286 21.5513C23.6611 20.5578 21.9428 20.2953 19.5257 20.2124L19.5 20.962ZM27.2126 36.4246L27.2126 35.6746C26.065 35.6747 25.4002 35.6732 24.8307 35.7634L24.948 36.5042L25.0654 37.2449C25.4894 37.1778 26.01 37.1747 27.2126 37.1746L27.2126 36.4246ZM27.25 32.5496H26.5C26.5 34.0637 26.4999 35.3239 26.4631 36.399L27.2126 36.4246L27.9622 36.4503C28.0001 35.3441 28 34.0554 28 32.5496H27.25ZM27.2126 36.4246L26.4631 36.399C26.3809 38.7976 26.1141 40.1022 25.4098 41.0716L26.0166 41.5124L26.6233 41.9533C27.6169 40.5858 27.8794 38.8675 27.9622 36.4503L27.2126 36.4246ZM19.5 44.1373L20.25 44.1373C20.25 42.9347 20.2531 42.414 20.3203 41.99L19.5795 41.8727L18.8387 41.7553C18.7485 42.3249 18.75 42.9897 18.75 44.1373L19.5 44.1373ZM15.625 44.1746V44.9246C17.1307 44.9246 18.4195 44.9247 19.5257 44.8868L19.5 44.1373L19.4743 43.3877C18.3993 43.4245 17.139 43.4246 15.625 43.4246V44.1746ZM19.5 44.1373L19.5257 44.8868C21.9428 44.804 23.6611 44.5415 25.0286 43.548L24.5878 42.9412L24.1469 42.3344C23.1775 43.0388 21.873 43.3055 19.4743 43.3877L19.5 44.1373Z" fill="#505BEB"/>
<path d="M10.4583 27.383C10.4583 28.0963 9.88003 28.6746 9.16667 28.6746C8.4533 28.6746 7.875 28.0963 7.875 27.383C7.875 26.6696 8.4533 26.0913 9.16667 26.0913C9.88003 26.0913 10.4583 26.6696 10.4583 27.383Z" fill="#505BEB"/>
<path d="M10.4583 32.5496C10.4583 33.263 9.88003 33.8413 9.16667 33.8413C8.4533 33.8413 7.875 33.263 7.875 32.5496C7.875 31.8363 8.4533 31.258 9.16667 31.258C9.88003 31.258 10.4583 31.8363 10.4583 32.5496Z" fill="#505BEB"/>
<path d="M16.9167 27.383C16.9167 28.0963 16.3384 28.6746 15.625 28.6746C14.9116 28.6746 14.3333 28.0963 14.3333 27.383C14.3333 26.6696 14.9116 26.0913 15.625 26.0913C16.3384 26.0913 16.9167 26.6696 16.9167 27.383Z" fill="#505BEB"/>
<path d="M16.9167 32.5496C16.9167 33.263 16.3384 33.8413 15.625 33.8413C14.9116 33.8413 14.3333 33.263 14.3333 32.5496C14.3333 31.8363 14.9116 31.258 15.625 31.258C16.3384 31.258 16.9167 31.8363 16.9167 32.5496Z" fill="#505BEB"/>
<path d="M16.9167 37.7163C16.9167 38.4297 16.3384 39.008 15.625 39.008C14.9116 39.008 14.3333 38.4297 14.3333 37.7163C14.3333 37.0029 14.9116 36.4246 15.625 36.4246C16.3384 36.4246 16.9167 37.0029 16.9167 37.7163Z" fill="#505BEB"/>
<path d="M23.375 27.383C23.375 28.0963 22.7967 28.6746 22.0833 28.6746C21.37 28.6746 20.7917 28.0963 20.7917 27.383C20.7917 26.6696 21.37 26.0913 22.0833 26.0913C22.7967 26.0913 23.375 26.6696 23.375 27.383Z" fill="#505BEB"/>
<path d="M23.375 32.5496C23.375 33.263 22.7967 33.8413 22.0833 33.8413C21.37 33.8413 20.7917 33.263 20.7917 32.5496C20.7917 31.8363 21.37 31.258 22.0833 31.258C22.7967 31.258 23.375 31.8363 23.375 32.5496Z" fill="#505BEB"/>
<path d="M10.4583 37.7163C10.4583 38.4297 9.88003 39.008 9.16667 39.008C8.4533 39.008 7.875 38.4297 7.875 37.7163C7.875 37.0029 8.4533 36.4246 9.16667 36.4246C9.88003 36.4246 10.4583 37.0029 10.4583 37.7163Z" fill="#505BEB"/>
</svg>
