<svg width="40" height="40" viewBox="0 0 40 40" fill="none" xmlns="http://www.w3.org/2000/svg">
<rect width="40" height="40" rx="12" fill="#DCFCE7"/>
<path d="M24.1667 26.6666H28.3334V24.9999C28.3334 24.4804 28.1715 23.9737 27.8702 23.5504C27.5689 23.1272 27.1433 22.8082 26.6524 22.638C26.1615 22.4678 25.6298 22.4548 25.1311 22.6008C24.6325 22.7467 24.1917 23.0444 23.8701 23.4524M24.1667 26.6666H15.8334M24.1667 26.6666V24.9999C24.1667 24.4533 24.0617 23.9308 23.8701 23.4524M23.8701 23.4524C23.5606 22.6791 23.0265 22.0161 22.3367 21.5492C21.6469 21.0822 20.8331 20.8327 20.0001 20.8327C19.1671 20.8327 18.3532 21.0822 17.6634 21.5492C16.9736 22.0161 16.4395 22.6791 16.1301 23.4524M15.8334 26.6666H11.6667V24.9999C11.6668 24.4804 11.8287 23.9737 12.13 23.5504C12.4312 23.1272 12.8569 22.8082 13.3478 22.638C13.8387 22.4678 14.3704 22.4548 14.869 22.6008C15.3677 22.7467 15.8084 23.0444 16.1301 23.4524M15.8334 26.6666V24.9999C15.8334 24.4533 15.9384 23.9308 16.1301 23.4524M22.5001 15.8333C22.5001 16.4963 22.2367 17.1322 21.7678 17.601C21.299 18.0699 20.6631 18.3333 20.0001 18.3333C19.337 18.3333 18.7012 18.0699 18.2323 17.601C17.7635 17.1322 17.5001 16.4963 17.5001 15.8333C17.5001 15.1702 17.7635 14.5343 18.2323 14.0655C18.7012 13.5966 19.337 13.3333 20.0001 13.3333C20.6631 13.3333 21.299 13.5966 21.7678 14.0655C22.2367 14.5343 22.5001 15.1702 22.5001 15.8333ZM27.5001 18.3333C27.5001 18.7753 27.3245 19.1992 27.0119 19.5118C26.6994 19.8243 26.2754 19.9999 25.8334 19.9999C25.3914 19.9999 24.9675 19.8243 24.6549 19.5118C24.3423 19.1992 24.1667 18.7753 24.1667 18.3333C24.1667 17.8912 24.3423 17.4673 24.6549 17.1547C24.9675 16.8422 25.3914 16.6666 25.8334 16.6666C26.2754 16.6666 26.6994 16.8422 27.0119 17.1547C27.3245 17.4673 27.5001 17.8912 27.5001 18.3333ZM15.8334 18.3333C15.8334 18.7753 15.6578 19.1992 15.3453 19.5118C15.0327 19.8243 14.6088 19.9999 14.1667 19.9999C13.7247 19.9999 13.3008 19.8243 12.9882 19.5118C12.6757 19.1992 12.5001 18.7753 12.5001 18.3333C12.5001 17.8912 12.6757 17.4673 12.9882 17.1547C13.3008 16.8422 13.7247 16.6666 14.1667 16.6666C14.6088 16.6666 15.0327 16.8422 15.3453 17.1547C15.6578 17.4673 15.8334 17.8912 15.8334 18.3333Z" stroke="black" stroke-width="2" stroke-linecap="round" stroke-linejoin="round"/>
</svg>
