<svg width="36" height="47" viewBox="0 0 36 47" fill="none" xmlns="http://www.w3.org/2000/svg">
<path d="M11.4416 13.8305C14.5066 11.3278 16.0391 10.0765 17.7893 10.0043C17.9297 9.99855 18.0703 9.99855 18.2107 10.0043C19.9609 10.0765 21.4934 11.3278 24.5584 13.8305C27.6235 16.3332 29.156 17.5845 29.7579 19.4329C29.8062 19.5812 29.8496 19.7314 29.8881 19.8833C30.3679 21.7763 29.7825 23.801 28.6118 27.8504L26.6338 34.6921C26.3195 35.7791 25.4181 36.5152 24.401 36.5152C23.1044 36.5152 22.0533 35.3339 22.0533 33.8767V30.326C22.0533 28.9588 21.0671 27.8504 19.8505 27.8504H16.1495C14.9329 27.8504 13.9467 28.9588 13.9467 30.326V33.8767C13.9467 35.3339 12.8956 36.5152 11.599 36.5152C10.5819 36.5152 9.68052 35.7791 9.36623 34.6921L7.38821 27.8504C6.21747 23.801 5.63209 21.7763 6.11188 19.8833C6.15036 19.7314 6.19379 19.5812 6.24208 19.4329C6.84399 17.5845 8.37651 16.3332 11.4416 13.8305Z" stroke="#505BEB" stroke-width="1.5"/>
</svg>
