<svg width="24" height="28" viewBox="0 0 24 28" fill="none" xmlns="http://www.w3.org/2000/svg">
<path d="M15.2808 20.284L14.8873 19.9754L15.2808 20.284ZM9.71921 20.284L9.32576 20.5925L9.71921 20.284ZM12.5 22.589V22.089V22.589ZM20.5 10.1922H20C20 11.4877 19.3311 13.1774 18.3214 14.9626C17.3226 16.7283 16.0347 18.5123 14.8873 19.9754L15.2808 20.284L15.6742 20.5925C16.8366 19.1102 18.1583 17.282 19.1918 15.4549C20.2141 13.6474 21 11.7639 21 10.1922H20.5ZM9.71921 20.284L10.1127 19.9754C8.9653 18.5123 7.67736 16.7283 6.67865 14.9626C5.66887 13.1774 5 11.4877 5 10.1922H4.5H4C4 11.7639 4.78586 13.6474 5.80824 15.4549C6.84169 17.282 8.16336 19.1102 9.32576 20.5925L9.71921 20.284ZM4.5 10.1922H5C5 5.67872 8.39176 2.0835 12.5 2.0835V1.5835V1.0835C7.77168 1.0835 4 5.19676 4 10.1922H4.5ZM12.5 1.5835V2.0835C16.6082 2.0835 20 5.67872 20 10.1922H20.5H21C21 5.19676 17.2283 1.0835 12.5 1.0835V1.5835ZM15.2808 20.284L14.8873 19.9754C14.2739 20.7577 13.8515 21.2936 13.4673 21.6426C13.1044 21.9722 12.825 22.089 12.5 22.089V22.589V23.089C13.1482 23.089 13.6567 22.8215 14.1397 22.3828C14.6012 21.9636 15.0827 21.3469 15.6742 20.5925L15.2808 20.284ZM9.71921 20.284L9.32576 20.5925C9.91732 21.3469 10.3988 21.9636 10.8603 22.3828C11.3433 22.8215 11.8518 23.089 12.5 23.089V22.589V22.089C12.175 22.089 11.8956 21.9722 11.5327 21.6426C11.1485 21.2936 10.7261 20.7577 10.1127 19.9754L9.71921 20.284ZM9.5 10.5835H9C9 12.5165 10.567 14.0835 12.5 14.0835V13.5835V13.0835C11.1193 13.0835 10 11.9642 10 10.5835H9.5ZM12.5 13.5835V14.0835C14.433 14.0835 16 12.5165 16 10.5835H15.5H15C15 11.9642 13.8807 13.0835 12.5 13.0835V13.5835ZM15.5 10.5835H16C16 8.6505 14.433 7.0835 12.5 7.0835V7.5835V8.0835C13.8807 8.0835 15 9.20278 15 10.5835H15.5ZM12.5 7.5835V7.0835C10.567 7.0835 9 8.6505 9 10.5835H9.5H10C10 9.20278 11.1193 8.0835 12.5 8.0835V7.5835Z" fill="#666666"/>
</svg>
