<svg width="41" height="40" viewBox="0 0 41 40" fill="none" xmlns="http://www.w3.org/2000/svg">
<rect x="0.5" width="40" height="40" rx="12" fill="#FEF3C7"/>
<path d="M13 16.6667L19.575 20.2167C19.8489 20.3995 20.1708 20.497 20.5 20.497C20.8292 20.497 21.1511 20.3995 21.425 20.2167L28 16.6667M14.6667 25.8334H26.3333C26.7754 25.8334 27.1993 25.6578 27.5118 25.3453C27.8244 25.0327 28 24.6088 28 24.1667V15.8334C28 15.3914 27.8244 14.9675 27.5118 14.6549C27.1993 14.3423 26.7754 14.1667 26.3333 14.1667H14.6667C14.2246 14.1667 13.8007 14.3423 13.4882 14.6549C13.1756 14.9675 13 15.3914 13 15.8334V24.1667C13 24.6088 13.1756 25.0327 13.4882 25.3453C13.8007 25.6578 14.2246 25.8334 14.6667 25.8334Z" stroke="black" stroke-width="2" stroke-linecap="round" stroke-linejoin="round"/>
</svg>
