<svg width="33" height="33" viewBox="0 0 33 33" fill="none" xmlns="http://www.w3.org/2000/svg">
<path d="M21.3333 12.3825H20.5833C20.5833 14.8217 18.6059 16.7992 16.1667 16.7992V17.5492V18.2992C19.4344 18.2992 22.0833 15.6502 22.0833 12.3825H21.3333ZM16.1667 17.5492V16.7992C13.7274 16.7992 11.75 14.8217 11.75 12.3825H11H10.25C10.25 15.6502 12.899 18.2992 16.1667 18.2992V17.5492ZM11 12.3825H11.75C11.75 9.94323 13.7274 7.96582 16.1667 7.96582V7.21582V6.46582C12.899 6.46582 10.25 9.1148 10.25 12.3825H11ZM16.1667 7.21582V7.96582C18.6059 7.96582 20.5833 9.94323 20.5833 12.3825H21.3333H22.0833C22.0833 9.1148 19.4344 6.46582 16.1667 6.46582V7.21582ZM12.2917 21.4242V22.1742H20.0417V21.4242V20.6742H12.2917V21.4242ZM3.25 16.2575H4C4 9.53802 9.4472 4.09082 16.1667 4.09082V3.34082V2.59082C8.61878 2.59082 2.5 8.7096 2.5 16.2575H3.25ZM16.1667 3.34082V4.09082C22.8861 4.09082 28.3333 9.53802 28.3333 16.2575H29.0833H29.8333C29.8333 8.7096 23.7146 2.59082 16.1667 2.59082V3.34082ZM29.0833 16.2575H28.3333C28.3333 19.7079 26.898 22.8218 24.5898 25.0369L25.1091 25.5781L25.6284 26.1192C28.2191 23.6329 29.8333 20.1331 29.8333 16.2575H29.0833ZM25.1091 25.5781L24.5898 25.0369C22.403 27.1355 19.4361 28.4242 16.1667 28.4242V29.1742V29.9242C19.8385 29.9242 23.1735 28.4751 25.6284 26.1192L25.1091 25.5781ZM20.0417 21.4242V22.1742C22.1838 22.1742 23.9712 23.6999 24.3735 25.7243L25.1091 25.5781L25.8447 25.4319C25.3056 22.7191 22.9133 20.6742 20.0417 20.6742V21.4242ZM16.1667 29.1742V28.4242C12.8972 28.4242 9.93031 27.1355 7.74353 25.0369L7.22422 25.5781L6.70491 26.1192C9.15979 28.4751 12.4948 29.9242 16.1667 29.9242V29.1742ZM7.22422 25.5781L7.74353 25.0369C5.43533 22.8218 4 19.7079 4 16.2575H3.25H2.5C2.5 20.1331 4.11419 23.6329 6.70491 26.1192L7.22422 25.5781ZM12.2917 21.4242V20.6742C9.42005 20.6742 7.02773 22.7191 6.4886 25.4319L7.22422 25.5781L7.95983 25.7243C8.36216 23.6999 10.1496 22.1742 12.2917 22.1742V21.4242Z" fill="#505BEB"/>
</svg>
