<svg width="23" height="23" viewBox="0 0 23 23" fill="none" xmlns="http://www.w3.org/2000/svg">
<path d="M18.3536 17.6465C18.1584 17.4513 17.8418 17.4513 17.6465 17.6465C17.4513 17.8418 17.4512 18.1584 17.6465 18.3536L18.0001 18.0001L18.3536 17.6465ZM21.6464 22.3536C21.8417 22.5489 22.1582 22.5489 22.3535 22.3536C22.5488 22.1583 22.5488 21.8418 22.3535 21.6465L22 22L21.6464 22.3536ZM18.0001 18.0001L17.6465 18.3536L21.6464 22.3536L22 22L22.3535 21.6465L18.3536 17.6465L18.0001 18.0001ZM10 19V18.5C5.30558 18.5 1.5 14.6944 1.5 10H1H0.5C0.5 15.2467 4.7533 19.5 10 19.5V19ZM19 10H18.5C18.5 14.6944 14.6944 18.5 10 18.5V19V19.5C15.2467 19.5 19.5 15.2467 19.5 10H19ZM10 1V1.5C14.6944 1.5 18.5 5.30558 18.5 10H19H19.5C19.5 4.7533 15.2467 0.5 10 0.5V1ZM10 1V0.5C4.7533 0.5 0.5 4.7533 0.5 10H1H1.5C1.5 5.30558 5.30558 1.5 10 1.5V1Z" fill="#2D264B"/>
</svg>
