<svg width="40" height="40" viewBox="0 0 40 40" fill="none" xmlns="http://www.w3.org/2000/svg">
<rect width="40" height="40" rx="8" fill="#E0F2FE"/>
<g clip-path="url(#clip0_165_499)">
<path d="M20 22.5C21.3807 22.5 22.5 21.3807 22.5 20C22.5 18.6192 21.3807 17.5 20 17.5C18.6192 17.5 17.5 18.6192 17.5 20C17.5 21.3807 18.6192 22.5 20 22.5Z" stroke="#0EA5E9" stroke-width="1.66667" stroke-linecap="round" stroke-linejoin="round"/>
<path d="M26.1668 22.4999C26.0559 22.7513 26.0228 23.0301 26.0718 23.3004C26.1208 23.5708 26.2497 23.8202 26.4418 24.0166L26.4918 24.0666C26.6468 24.2213 26.7697 24.4052 26.8536 24.6075C26.9375 24.8098 26.9807 25.0268 26.9807 25.2458C26.9807 25.4648 26.9375 25.6817 26.8536 25.884C26.7697 26.0863 26.6468 26.2702 26.4918 26.4249C26.3371 26.5799 26.1532 26.7028 25.9509 26.7867C25.7486 26.8706 25.5317 26.9138 25.3127 26.9138C25.0937 26.9138 24.8767 26.8706 24.6744 26.7867C24.4721 26.7028 24.2882 26.5799 24.1335 26.4249L24.0835 26.3749C23.8871 26.1828 23.6377 26.0539 23.3673 26.0049C23.097 25.9559 22.8182 25.989 22.5668 26.0999C22.3203 26.2056 22.1102 26.3809 21.9621 26.6045C21.814 26.8281 21.7346 27.0901 21.7335 27.3583V27.4999C21.7335 27.9419 21.5579 28.3658 21.2453 28.6784C20.9327 28.991 20.5088 29.1666 20.0668 29.1666C19.6248 29.1666 19.2009 28.991 18.8883 28.6784C18.5757 28.3658 18.4002 27.9419 18.4002 27.4999V27.4249C18.3937 27.1491 18.3044 26.8815 18.1439 26.6572C17.9834 26.4328 17.7591 26.2618 17.5002 26.1666C17.2488 26.0557 16.97 26.0226 16.6997 26.0716C16.4293 26.1206 16.1799 26.2495 15.9835 26.4416L15.9335 26.4916C15.7787 26.6466 15.5949 26.7695 15.3926 26.8533C15.1902 26.9373 14.9734 26.9804 14.7543 26.9804C14.5353 26.9804 14.3184 26.9373 14.1161 26.8533C13.9138 26.7695 13.73 26.6466 13.5752 26.4916C13.4202 26.3368 13.2973 26.153 13.2134 25.9507C13.1295 25.7483 13.0864 25.5314 13.0864 25.3124C13.0864 25.0934 13.1295 24.8765 13.2134 24.6742C13.2973 24.4718 13.4202 24.288 13.5752 24.1332L13.6252 24.0833C13.8173 23.8868 13.9462 23.6374 13.9952 23.3671C14.0442 23.0968 14.0111 22.8179 13.9002 22.5666C13.7945 22.3201 13.6191 22.1099 13.3956 21.9618C13.172 21.8138 12.91 21.7343 12.6418 21.7333H12.5002C12.0581 21.7333 11.6342 21.5577 11.3217 21.2451C11.0091 20.9325 10.8335 20.5086 10.8335 20.0666C10.8335 19.6246 11.0091 19.2007 11.3217 18.8881C11.6342 18.5755 12.0581 18.3999 12.5002 18.3999H12.5752C12.851 18.3935 13.1185 18.3042 13.3429 18.1437C13.5673 17.9832 13.7383 17.7589 13.8335 17.4999C13.9444 17.2486 13.9775 16.9698 13.9285 16.6994C13.8795 16.4291 13.7506 16.1797 13.5585 15.9833L13.5085 15.9333C13.3535 15.7785 13.2306 15.5947 13.1467 15.3923C13.0629 15.19 13.0197 14.9731 13.0197 14.7541C13.0197 14.5351 13.0629 14.3182 13.1467 14.1159C13.2306 13.9135 13.3535 13.7297 13.5085 13.5749C13.6633 13.42 13.8471 13.297 14.0494 13.2132C14.2518 13.1293 14.4686 13.0861 14.6877 13.0861C14.9067 13.0861 15.1236 13.1293 15.3259 13.2132C15.5282 13.297 15.712 13.42 15.8668 13.5749L15.9168 13.6249C16.1132 13.817 16.3627 13.9459 16.633 13.9949C16.9033 14.0439 17.1821 14.0109 17.4335 13.8999H17.5002C17.7466 13.7943 17.9568 13.6189 18.1049 13.3953C18.253 13.1717 18.3324 12.9097 18.3335 12.6416V12.4999C18.3335 12.0579 18.5091 11.634 18.8217 11.3214C19.1342 11.0088 19.5582 10.8333 20.0002 10.8333C20.4422 10.8333 20.8661 11.0088 21.1787 11.3214C21.4912 11.634 21.6668 12.0579 21.6668 12.4999V12.5749C21.6679 12.8431 21.7473 13.1051 21.8954 13.3286C22.0435 13.5522 22.2537 13.7276 22.5002 13.8333C22.7515 13.9442 23.0303 13.9773 23.3007 13.9283C23.571 13.8792 23.8204 13.7504 24.0168 13.5583L24.0668 13.5083C24.2216 13.3533 24.4054 13.2304 24.6077 13.1465C24.8101 13.0626 25.027 13.0194 25.246 13.0194C25.465 13.0194 25.6819 13.0626 25.8842 13.1465C26.0866 13.2304 26.2704 13.3533 26.4252 13.5083C26.5802 13.663 26.7031 13.8469 26.7869 14.0492C26.8708 14.2515 26.914 14.4684 26.914 14.6874C26.914 14.9064 26.8708 15.1233 26.7869 15.3257C26.7031 15.528 26.5802 15.7118 26.4252 15.8666L26.3752 15.9166C26.1831 16.113 26.0542 16.3624 26.0052 16.6328C25.9562 16.9031 25.9892 17.1819 26.1002 17.4333V17.4999C26.2058 17.7464 26.3812 17.9566 26.6047 18.1047C26.8283 18.2527 27.0903 18.3322 27.3585 18.3333H27.5002C27.9422 18.3333 28.3661 18.5088 28.6787 18.8214C28.9912 19.134 29.1668 19.5579 29.1668 19.9999C29.1668 20.4419 28.9912 20.8658 28.6787 21.1784C28.3661 21.491 27.9422 21.6666 27.5002 21.6666H27.4252C27.157 21.6677 26.895 21.7471 26.6714 21.8952C26.4478 22.0433 26.2725 22.2534 26.1668 22.4999Z" stroke="#0EA5E9" stroke-width="1.66667" stroke-linecap="round" stroke-linejoin="round"/>
</g>
<defs>
<clipPath id="clip0_165_499">
<rect width="20" height="20" fill="white" transform="translate(10 10)"/>
</clipPath>
</defs>
</svg>
