<svg width="40" height="40" viewBox="0 0 40 40" fill="none" xmlns="http://www.w3.org/2000/svg">
<rect width="40" height="40" rx="12" fill="#DBEAFE"/>
<g clip-path="url(#clip0_31_286)">
<path d="M16.6667 15.8333V12.5M23.3333 15.8333V12.5M15.8333 19.1667H24.1667M14.1667 27.5H25.8333C26.2754 27.5 26.6993 27.3244 27.0118 27.0118C27.3244 26.6993 27.5 26.2754 27.5 25.8333V15.8333C27.5 15.3913 27.3244 14.9674 27.0118 14.6548C26.6993 14.3423 26.2754 14.1667 25.8333 14.1667H14.1667C13.7246 14.1667 13.3007 14.3423 12.9882 14.6548C12.6756 14.9674 12.5 15.3913 12.5 15.8333V27.5C12.5 27.942 12.6756 28.3659 12.9882 28.6785C13.3007 28.9911 13.7246 29.1667 14.1667 29.1667V27.5Z" stroke="black" stroke-width="2" stroke-linecap="round" stroke-linejoin="round"/>
</g>
<defs>
<clipPath id="clip0_31_286">
<rect width="20" height="20" fill="white" transform="translate(10 10)"/>
</clipPath>
</defs>
</svg>
